# xmcd
#
# Track frame offsets:
#  150
#  25482
#  47636
#  69524
#  93375
#  112549
#
# Disc length: 1728 seconds
#
# Revision: 0
# Processed by: cddbd v1.5.1PL2 Copyright (c) Steve Scherf et al.
# Submitted via: Collectorz.com_Music_Collector 6.9
#
DISCID=4206be06
DTITLE=Ten - Fear The Force
DYEAR=1999
DGENRE=Hard Rock
TTITLE0=Fear The Force
TTITLE1=Xanadu
TTITLE2=Rainbow In The Dark
TTITLE3=We Rule The Night (acoustic version)
TTITLE4=Red (acoustic version)
TTITLE5=Till The End Of Time (acoustic version)
EXTD=
EXTT0=
EXTT1=
EXTT2=
EXTT3=
EXTT4=
EXTT5=
PLAYORDER=
